<svg width="21" height="22" viewBox="0 0 21 22" fill="none" xmlns="http://www.w3.org/2000/svg">
  <path
    d="M0 21.4993L17.7 2.5993C17.7 2.5993 18.2 2.19931 18.7 2.69931C19.2 3.19931 18.8 3.79928 18.8 3.79928L0 21.4993ZM1.79999 15.8993L15.3 1.29928C15.3 1.29928 15.8 0.899287 16.3 1.39929C16.8 1.89929 16.4 2.49929 16.4 2.49929L1.79999 15.8993ZM5.59998 19.7993L19 5.19931C19 5.19931 19.5 4.79928 20 5.29928C20.5 5.79928 20.1 6.39929 20.1 6.39929L5.59998 19.7993ZM3.29999 11.0993L12.7 0.899287C12.7 0.899287 13 0.699293 13.4 0.999293C13.7 1.29929 13.4 1.69931 13.4 1.69931L3.29999 11.0993ZM10 18.4993L19.4 8.29928C19.4 8.29928 19.7 8.09929 20.1 8.39929C20.4 8.69929 20.2 9.0993 20.2 9.0993L10 18.4993ZM5.5 6.29928L9.79999 1.5993C9.79999 1.5993 9.99998 1.49931 10.1 1.69931C10.3 1.79931 10.1 1.99929 10.1 1.99929L5.5 6.29928ZM14.6 16.0993L18.9 11.3993C18.9 11.3993 19.1 11.2993 19.2 11.3993C19.4 11.5993 19.2 11.7993 19.2 11.7993L14.6 16.0993Z"
    fill="#D6D6D6"/>
</svg>
