<svg width="22" height="19" viewBox="0 0 22 19" fill="none" xmlns="http://www.w3.org/2000/svg">
  <path
    d="M11.2001 18.8994C10.9001 18.8994 10.5001 18.8994 10.2001 18.7994C8.00013 18.5994 5.9001 17.3994 4.1001 15.3994L3.6001 14.7994L4.20013 14.2994V14.0994L4.30011 12.8994L5.20013 13.2994C5.30013 13.2994 5.30015 13.3994 5.40015 13.3994L5.6001 13.4994C5.6001 13.4994 5.70013 13.4994 5.70013 13.5994C7.30013 14.5994 8.70013 15.0994 9.70013 14.9994C10.6001 14.9994 11.2001 14.5994 11.6001 13.7994C11.9001 13.0994 12.0001 12.2994 11.7001 11.3994C11.4001 10.4994 10.9001 9.69943 10.1001 9.19943C8.5001 8.09943 7.00013 6.29943 6.20013 4.69943C5.80013 3.89943 5.60013 3.19943 5.70013 2.59943C5.70013 2.29943 5.90012 1.99941 6.00012 1.89941C6.20012 1.69941 6.50011 1.49942 6.80011 1.49942C7.20011 1.39942 7.70011 1.29943 8.30011 1.09943C8.40011 1.09943 8.60013 0.99942 8.70013 0.99942L9.00012 0.899414C9.70012 0.699414 10.7001 0.399414 11.8001 0.399414C14.3001 0.399414 16.5001 1.79943 18.4001 4.69943C21.5001 9.29943 19.7001 14.2994 16.3001 16.7994C14.9001 18.2994 13.0001 18.8994 11.2001 18.8994ZM6.40015 15.7994C7.60015 16.7994 8.90011 17.2994 10.3001 17.4994C12.1001 17.6994 14.0001 17.1994 15.6001 15.9994C18.5001 13.7994 20.1001 9.59941 17.4001 5.79941C15.1001 2.39941 13.1001 2.09943 11.8001 2.09943C10.9001 2.09943 10.1001 2.29942 9.50012 2.49942L9.20013 2.59943C9.10013 2.59943 8.90011 2.69943 8.80011 2.69943C8.10011 2.89943 7.6001 3.09943 7.1001 3.19943C7.1001 3.39943 7.20012 3.89942 7.50012 4.49942C8.20012 5.89942 9.60012 7.49942 11.0001 8.49942C12.0001 9.19942 12.7001 10.2994 13.1001 11.4994C13.5001 12.6994 13.4001 13.8994 12.9001 14.8994C12.3001 16.0994 11.2001 16.7994 9.80011 16.7994C8.90011 16.6994 7.70015 16.3994 6.40015 15.7994ZM5.50012 13.6994C5.60012 13.6994 5.60012 13.6994 5.50012 13.6994V13.6994Z"
    fill="#D6D6D6"/>
  <path
    d="M18.5005 5.7998C20.1005 8.5998 19.8005 6.99983 19.4005 10.1998C20.1005 9.09983 21.1005 9.8998 21.5005 10.2998C21.6005 10.3998 21.7005 10.2998 21.7005 10.1998C21.7005 9.69983 21.5005 8.69982 20.8005 7.59982C19.7005 6.09982 18.5005 5.7998 18.5005 5.7998Z"
    fill="#D6D6D6"/>
  <path
    d="M5.6003 9.69902C4.9003 10.799 3.5003 10.799 3.6003 12.099C4.8003 14.799 4.80031 14.699 4.80031 14.699C7.10031 13.399 6.10031 10.599 5.80031 9.69902C5.80031 9.59902 5.7003 9.59902 5.6003 9.69902Z"
    fill="#D6D6D6"/>
  <path
    d="M0.500289 12.2992C1.80029 12.4992 2.6003 11.2993 3.7003 12.1993C5.1003 14.8993 4.90031 14.7992 4.90031 14.7992C2.50031 15.7992 0.800313 13.2993 0.400313 12.4993C0.300313 12.3993 0.400289 12.1992 0.500289 12.2992Z"
    fill="#D6D6D6"/>
  <path
    d="M11.5004 10.5999C11.5004 10.5999 12.8004 11.8999 12.1004 12.1999C11.2004 11.6999 9.70042 12.0999 9.00042 12.2999C8.80042 12.3999 8.60043 12.1999 8.70043 11.9999C9.00043 11.2999 9.6004 9.99988 10.8004 9.79988C11.5004 9.59988 11.5004 10.5999 11.5004 10.5999Z"
    fill="#D6D6D6"/>
  <path
    d="M19.2002 7.39981C17.9002 3.49981 13.5002 1.2998 12.4002 1.2998C11.3002 1.2998 6.2002 2.59982 6.2002 2.59982L6.50018 4.39981L7.40021 5.89981L7.50018 4.69983C7.50018 4.69983 7.2002 4.19983 7.7002 4.19983C12.0002 3.59983 20.8002 11.7998 15.4002 16.1998C16.1002 16.5998 21.1002 12.9998 19.2002 7.39981ZM14.4002 4.89981C14.1002 4.89981 13.6002 4.79982 13.2002 4.59982C12.8002 4.39982 12.4002 4.09981 12.3002 3.89981C12.1002 3.69981 11.8002 3.09982 12.8002 3.09982C13.7002 3.09982 15.2002 4.09982 15.4002 4.49982C15.3002 4.89982 14.7002 4.89981 14.4002 4.89981Z"
    fill="#D6D6D6"/>
</svg>
