<svg width="20" height="23" viewBox="0 0 20 23" fill="none" xmlns="http://www.w3.org/2000/svg">
  <path
    d="M18.5003 8.9996V16.6996L9.90033 21.6996L1.30029 16.6996V6.79959L9.90033 1.79959L16.5003 5.59961L17.5003 4.9996L9.90033 0.599609L0.300293 6.09961V17.1996L9.90033 22.6996L19.5003 17.1996V8.29959L18.5003 8.9996Z"
    fill="#D6D6D6"/>
  <path
    d="M7.50012 16.7H6.1001V11.9H10.9001C11.4001 11.9 11.8001 11.7 12.1001 11.4C12.4001 11.1 12.6001 10.6 12.6001 10.2C12.6001 10 12.6001 9.8 12.5001 9.5C12.4001 9.3 12.3001 9.1 12.1001 9C11.9001 8.8 11.8001 8.70001 11.6001 8.60001C11.4001 8.50001 11.2001 8.5 10.9001 8.5H6.1001V7H10.9001C11.7001 7 12.5001 7.29999 13.1001 7.89999C13.7001 8.49999 14.0001 9.30001 14.0001 10.1C14.0001 10.7 13.8001 11.4 13.4001 11.9C13.1001 12.4 12.6001 12.8 12.0001 13C11.4001 13.2 10.9001 13.3 10.3001 13.3H7.40015V16.7H7.50012Z"
    fill="#D6D6D6"/>
  <path d="M14.0005 16.6H12.3005L11.0005 14.3C11.5005 14.3 12.0005 14.2 12.5005 14L14.0005 16.6Z" fill="#D6D6D6"/>
  <path d="M17.5005 7.3996L18.5005 7.9996L19.5005 7.3996V6.19962L18.5005 5.59961L17.5005 6.19962V7.3996Z"
        fill="#D6D6D6"/>
</svg>
