<svg width="50" height="50" viewBox="0 0 50 50" fill="none" xmlns="http://www.w3.org/2000/svg">
  <path
    d="M25.1001 49.0996C38.6311 49.0996 49.6001 38.1306 49.6001 24.5996C49.6001 11.0686 38.6311 0.0996094 25.1001 0.0996094C11.5691 0.0996094 0.600098 11.0686 0.600098 24.5996C0.600098 38.1306 11.5691 49.0996 25.1001 49.0996Z"
    fill="url(#paint0_linear_0_1)"/>
  <path
    d="M15.4999 30.8996C15.6999 30.6996 15.8999 30.5996 16.1999 30.5996H40.4999C40.8999 30.5996 41.1999 31.0996 40.8999 31.3996L36.0999 36.1996C35.8999 36.3996 35.6999 36.4996 35.3999 36.4996H10.9999C10.5999 36.4996 10.2999 35.9996 10.5999 35.6996L15.4999 30.8996Z"
    fill="white"/>
  <path
    d="M15.4999 12.9992C15.6999 12.7992 15.8999 12.6992 16.1999 12.6992H40.4999C40.8999 12.6992 41.1999 13.1992 40.8999 13.4992L36.0999 18.2992C35.8999 18.4992 35.6999 18.5992 35.3999 18.5992H10.9999C10.5999 18.5992 10.2999 18.0992 10.5999 17.7992L15.4999 12.9992Z"
    fill="white"/>
  <path
    d="M35.9999 21.8996C35.7999 21.6996 35.5999 21.5996 35.2999 21.5996H10.9999C10.5999 21.5996 10.2999 22.0996 10.5999 22.3996L15.3999 27.1996C15.5999 27.3996 15.7999 27.4996 16.0999 27.4996H40.3999C40.7999 27.4996 41.0999 26.9996 40.7999 26.6996L35.9999 21.8996Z"
    fill="white"/>
  <defs>
    <linearGradient id="paint0_linear_0_1" x1="0.626398" y1="24.6343" x2="49.5744" y2="24.6343"
                    gradientUnits="userSpaceOnUse">
      <stop stop-color="#00FFA3"/>
      <stop offset="1" stop-color="#DC1FFF"/>
    </linearGradient>
  </defs>
</svg>
