<svg width="20" height="34" viewBox="0 0 20 34" fill="none" xmlns="http://www.w3.org/2000/svg">
  <path fill-rule="evenodd" clip-rule="evenodd"
        d="M2.49991 12.2C1.49991 14.5 0.999908 17 0.999908 19.5H6.8999C6.7999 19.6 6.69991 19.7 6.59991 19.8C4.79991 21.6 3.3999 23.7 2.3999 26C1.3999 28.3 0.899902 30.8 0.899902 33.3H6.99991C6.99991 31.6 7.29991 29.9 7.99991 28.3C8.69991 26.7 9.5999 25.3 10.7999 24.1C11.9999 22.9 13.4999 21.9 14.9999 21.3C16.5999 20.6 18.2999 20.3 19.9999 20.3V14.2C17.4999 14.2 14.9999 14.7 12.6999 15.7C10.5999 16.6 8.69991 17.8 6.99991 19.4C6.99991 17.8 7.39991 16.1 7.99991 14.6C8.69991 13 9.5999 11.6 10.7999 10.4C11.9999 9.20002 13.4999 8.19998 14.9999 7.59998C16.5999 6.89998 18.2999 6.59998 19.9999 6.59998V0.5C17.4999 0.5 14.9999 1 12.6999 2C10.3999 3 8.29991 4.40001 6.49991 6.20001C4.89991 7.80001 3.49991 9.90001 2.49991 12.2Z"
        fill="#999999"/>
</svg>
